# xmcd
#
# Track frame offsets: 
#        150
#        11710
#        24365
#        37807
#        51695
#        65190
#        77242
#        92007
#        103477
#        118410
#        132942
#        145627
#        157565
#        170180
#        185115
#        199162
#        213202
#        226275
#        236967
#        251092
#        264082
#        276877
#        291007
#        304260
#        318645
#
# Disc length: 4387 seconds
#
# Revision: 5
# Processed by: cddbd v1.5.2PL0 Copyright (c) Steve Scherf et al.
# Submitted via: ExactAudioCopy v1.0b1
#
DISCID=7b112119
DTITLE=Various Artist - Chess Blues (1952-1954)
DYEAR=1992
DGENRE=Blues
TTITLE0=John Lee Hooker - Walkin' The Boogie (alt) (mono)
TTITLE1=Little Walter - Juke (mono)
TTITLE2=Memphis Minnie - Conjur Man (mono)
TTITLE3=Muddy Waters - Who's Gonna Be Your Sweet Man When I'm Gone (mo
TTITLE3=no)
TTITLE4=Memphis Minnie - Broken Heart (alt) (mono)
TTITLE5=Willie Nix - Truckin' Little Woman (mono)
TTITLE6=Rocky Fuller - Funeral Hearse At My Door (mono)
TTITLE7=Eddie Boyd - Hard Time Gettin' Started (mono)
TTITLE8=Little Walter - Don't Need No Horse (mono)
TTITLE9=Gus Jenkins - Eight Ball (mono)
TTITLE10=Little Walter - Fast Boogie (mono)
TTITLE11=Willie Mabon - I'm Mad (mono)
TTITLE12=John Brim - Ice Cream Man (mono)
TTITLE13=Elmore James - Whose Muddy Shoes (mono)
TTITLE14=Willie Mabon - Got To Have It (mono)
TTITLE15=Henry Gray - I Declare That Ain't Right (mono)
TTITLE16=Alberta Adams - Remember (mono)
TTITLE17=Henry Gray and Morris Pejoe - Untitled Instrumental (mono)
TTITLE18=Little Walter - Blues With A Feeling (mono)
TTITLE19=Muddy Waters - (I'm Your) Hoochie Coochie Man (mono)
TTITLE20=Howlin' Wolf - Forty Four (mono)
TTITLE21=Little Walter - Got To Find My Baby (alt) (mono)
TTITLE22=Howlin' Wolf - Evil (mono)
TTITLE23=Lowell Fulson - Reconsider Baby (mono)
TTITLE24=J.B. Lenoir - Mama Talk To Your Daughter (mono)
EXTD=YEAR: 0
EXTT0=
EXTT1=
EXTT2=
EXTT3=
EXTT4=
EXTT5=
EXTT6=
EXTT7=
EXTT8=
EXTT9=
EXTT10=
EXTT11=
EXTT12=
EXTT13=
EXTT14=
EXTT15=
EXTT16=
EXTT17=
EXTT18=
EXTT19=
EXTT20=
EXTT21=
EXTT22=
EXTT23=
EXTT24=
PLAYORDER=
